<svg width="48" height="48" viewBox="0 0 48 48" fill="none" xmlns="http://www.w3.org/2000/svg">
<g clip-path="url(#clip0_417_19142)">
<circle cx="24" cy="24" r="22" fill="white"/>
<path d="M24 48C10.7445 48 0 37.2555 0 24C0 10.7445 10.7445 0 24 0C37.2555 0 48 10.7445 48 24C48 37.2555 37.2555 48 24 48ZM23.5875 9.09C23.0025 9.318 22.8525 10.1505 23.3085 10.572C23.739 11.0115 24.579 10.857 24.801 10.2825C25.1835 9.576 24.306 8.7195 23.586 9.0885L23.5875 9.09ZM15.855 9.909C15.2475 10.068 15.18 11.01 15.7695 11.235C16.215 11.475 16.8465 11.1015 16.8 10.5945C16.845 10.125 16.2915 9.732 15.855 9.909V9.909ZM31.692 11.2485C32.157 11.3655 32.502 10.9935 32.61 10.5885C32.535 10.113 32.067 9.6555 31.5585 9.8985C30.9015 10.1115 31.0095 11.1675 31.692 11.2485V11.2485ZM17.6145 13.146C16.9305 13.491 16.836 14.517 17.457 14.964C18.099 15.534 19.236 15.045 19.2735 14.2035C19.386 13.368 18.3435 12.6915 17.6145 13.146ZM28.7595 13.629C28.353 14.433 29.1735 15.354 30.039 15.195C30.6915 14.982 31.143 14.2065 30.7755 13.581C30.405 12.777 29.085 12.8025 28.7595 13.629ZM22.656 15.1485C22.617 15.7275 23.0385 16.2015 23.538 16.443C23.865 16.4625 24.2205 16.524 24.5205 16.359C25.1775 16.074 25.5015 15.216 25.137 14.592C24.942 14.142 24.447 13.95 23.9925 13.86C23.3055 13.9095 22.6485 14.4375 22.656 15.1485ZM11.157 16.1835C10.575 16.446 10.494 17.3325 11.007 17.7015C11.49 18.0945 12.333 17.844 12.471 17.2275C12.7245 16.515 11.8245 15.7785 11.157 16.182V16.1835ZM35.85 16.1805C35.268 16.5315 35.3325 17.4675 35.9505 17.7405C36.5115 18.0705 37.32 17.5875 37.281 16.947C37.3485 16.245 36.4155 15.7485 35.85 16.182V16.1805ZM25.89 17.457C24.726 17.805 24.036 19.194 24.51 20.304C24.927 21.5445 26.5755 22.1205 27.705 21.441C28.7925 20.8665 29.166 19.341 28.464 18.3405C27.933 17.5215 26.823 17.1255 25.89 17.457V17.457ZM20.4105 17.5665C19.308 18.051 18.801 19.4805 19.3725 20.5335C19.8825 21.621 21.3675 22.068 22.4205 21.4785C23.472 20.955 23.9265 19.5435 23.3385 18.5295C22.839 17.4885 21.4455 17.085 20.4105 17.5665V17.5665ZM14.925 19.41C14.7735 20.181 15.4725 20.964 16.272 20.895C16.998 20.8995 17.5275 20.241 17.5725 19.5675C17.5331 19.237 17.3825 18.9296 17.1453 18.696C16.9082 18.4624 16.5986 18.3164 16.2675 18.282C15.633 18.327 15.0045 18.7545 14.925 19.41V19.41ZM31.128 18.426C30.2475 18.834 30.183 20.184 31.0305 20.664C31.8465 21.24 33.1065 20.5485 33.051 19.566C33.087 18.639 31.9485 17.9565 31.128 18.426V18.426ZM18.183 21.8865C16.881 22.1955 16.119 23.7705 16.746 24.945C17.2935 26.226 19.185 26.604 20.211 25.665C21.012 25.0245 21.222 23.811 20.7075 22.938C20.2365 22.071 19.14 21.627 18.1815 21.8865H18.183ZM28.5735 21.882C27.2625 22.2345 26.5695 23.8695 27.258 25.026C27.828 26.145 29.4285 26.52 30.462 25.806C31.4475 25.1895 31.764 23.763 31.101 22.8075C30.6 21.972 29.505 21.6195 28.5735 21.882V21.882ZM12.0135 22.971C11.2185 23.193 10.983 24.327 11.6205 24.8355C12.165 25.3785 13.2195 25.1055 13.425 24.3705C13.7595 23.562 12.8415 22.6635 12.0135 22.971V22.971ZM34.467 24.144C34.605 24.459 34.7715 24.789 35.097 24.951C35.793 25.3275 36.7755 24.783 36.723 23.9805C36.768 23.3715 36.216 22.9215 35.649 22.833C35.319 22.8516 35.0096 22.9998 34.7883 23.2453C34.5669 23.4908 34.4515 23.8138 34.467 24.144ZM7.941 23.37C7.5285 23.5545 7.35 24.105 7.65 24.4635C7.989 24.978 8.9145 24.741 8.94 24.1245C9.0555 23.58 8.439 23.1555 7.941 23.37V23.37ZM39.3645 23.3565C38.7795 23.664 39.009 24.7245 39.717 24.6615C40.221 24.7365 40.653 24.132 40.4175 23.691C40.278 23.2875 39.7155 23.112 39.3645 23.3565V23.3565ZM20.889 26.316C19.908 26.526 19.152 27.4425 19.155 28.4295C19.1205 29.46 19.935 30.444 20.973 30.609C22.3155 30.918 23.703 29.7285 23.6175 28.386C23.61 27.057 22.2 25.9815 20.8875 26.316H20.889ZM26.082 26.3145C25.293 26.5065 24.624 27.147 24.45 27.9345C24.105 29.115 25.017 30.4515 26.2545 30.609C27.5685 30.87 28.914 29.7195 28.8435 28.4025C28.8645 27.0435 27.4125 25.9485 26.0835 26.3145H26.082ZM16.068 27.132C15.0735 27.231 14.5485 28.5465 15.2505 29.265C15.8505 30.015 17.2065 29.766 17.4795 28.848C17.853 27.9885 16.989 26.9775 16.0695 27.132H16.068ZM31.299 27.1725C30.3075 27.483 30.141 28.9725 31.0515 29.4765C31.854 30.0405 33.099 29.3745 33.066 28.41C33.129 27.5325 32.121 26.835 31.299 27.1725V27.1725ZM35.556 31.3725C35.7735 31.9695 36.681 32.112 37.0815 31.6125C37.377 31.344 37.3035 30.927 37.26 30.5775C37.0485 30.3615 36.816 30.105 36.4845 30.111C35.8185 30.0015 35.235 30.783 35.556 31.3725ZM11.154 30.2745C10.5615 30.5715 10.5405 31.5 11.1135 31.8255C11.6475 32.1855 12.4575 31.824 12.531 31.191C12.672 30.4755 11.7765 29.868 11.154 30.276V30.2745ZM23.4435 31.599C22.4625 31.9095 22.3155 33.3885 23.199 33.891C23.9955 34.476 25.2795 33.801 25.218 32.826C25.296 31.944 24.258 31.2465 23.4435 31.599V31.599ZM17.7525 32.9055C17.2635 33.0855 17.064 33.6165 17.055 34.092C17.223 34.5285 17.562 34.989 18.0825 34.9995C18.7125 35.0925 19.3335 34.5585 19.3125 33.9315C19.3755 33.1665 18.4455 32.547 17.7525 32.9055V32.9055ZM29.2815 32.9175C28.5855 33.267 28.5075 34.323 29.1495 34.7625C29.814 35.3235 30.96 34.7775 30.942 33.9225C31.0095 33.1065 29.9955 32.4825 29.2815 32.9175ZM31.287 37.7925C31.6125 38.3415 32.562 38.1465 32.6235 37.5075C32.7105 37.0335 32.2725 36.7275 31.8585 36.645C31.3425 36.753 30.969 37.3215 31.287 37.794V37.7925ZM15.3705 37.383C15.4155 37.9215 16.0125 38.388 16.5255 38.0475C17.097 37.7475 16.9035 36.78 16.251 36.735C15.8025 36.6375 15.4965 37.0095 15.3705 37.383ZM23.0505 37.8135C22.821 38.373 23.37 39.0495 23.9775 38.979C24.3045 38.9865 24.558 38.757 24.7545 38.529C24.792 38.3745 24.831 38.2185 24.8745 38.064C24.7935 37.767 24.7005 37.419 24.3825 37.284C23.9025 36.99 23.175 37.26 23.049 37.8135H23.0505Z" fill="#0033AD"/>
</g>
<defs>
<clipPath id="clip0_417_19142">
<rect width="48" height="48" fill="white"/>
</clipPath>
</defs>
</svg>
