<svg width="25" height="24" viewBox="0 0 25 24" fill="none" xmlns="http://www.w3.org/2000/svg">
<g clip-path="url(#clip0_1124_26741)">
<path d="M11.45 16.5C11.85 16.9 12.3667 17.096 13 17.088C13.6333 17.08 14.1 16.8507 14.4 16.4L20 8L11.6 13.6C11.15 13.9 10.9127 14.3583 10.888 14.975C10.8633 15.5917 11.0507 16.1 11.45 16.5ZM13 5C13.9833 5 14.9293 5.13767 15.838 5.413C16.7467 5.68833 17.6007 6.10067 18.4 6.65L16.5 7.85C15.95 7.56667 15.3793 7.35433 14.788 7.213C14.1967 7.07167 13.6007 7.00067 13 7C10.7833 7 8.89567 7.779 7.337 9.337C5.77833 10.895 4.99933 12.7827 5 15C5 15.7 5.096 16.3917 5.288 17.075C5.48 17.7583 5.75067 18.4 6.1 19H19.9C20.2833 18.3667 20.5627 17.7083 20.738 17.025C20.9133 16.3417 21.0007 15.6333 21 14.9C21 14.3 20.929 13.7167 20.787 13.15C20.645 12.5833 20.4327 12.0333 20.15 11.5L21.35 9.6C21.85 10.3833 22.246 11.2167 22.538 12.1C22.83 12.9833 22.984 13.9 23 14.85C23.0167 15.8 22.9083 16.7083 22.675 17.575C22.4417 18.4417 22.1 19.2667 21.65 20.05C21.4667 20.35 21.2167 20.5833 20.9 20.75C20.5833 20.9167 20.25 21 19.9 21H6.1C5.75 21 5.41667 20.9167 5.1 20.75C4.78333 20.5833 4.53333 20.35 4.35 20.05C3.91667 19.3 3.58333 18.504 3.35 17.662C3.11667 16.82 3 15.9327 3 15C3 13.6167 3.26267 12.3207 3.788 11.112C4.31333 9.90334 5.03 8.84533 5.938 7.938C6.846 7.02933 7.908 6.31233 9.124 5.787C10.34 5.26167 11.632 4.99933 13 5Z" fill="#FF0202"/>
</g>
<defs>
<clipPath id="clip0_1124_26741">
<rect width="24" height="24" fill="white" transform="translate(0.5)"/>
</clipPath>
</defs>
</svg>
