<svg xmlns="http://www.w3.org/2000/svg" xmlns:xlink="http://www.w3.org/1999/xlink" width="352" height="313" viewBox="0 0 352 313" fill="none">
<path d="M345.748 162.107C342.651 162.107 340.141 159.597 340.141 156.5C340.141 127.618 274.056 96.6949 175.677 96.6949C77.2988 96.6949 11.2134 127.618 11.2134 156.5C11.2134 159.597 8.70313 162.107 5.60672 162.107C2.51032 162.107 0 159.596 0 156.5C0 136.545 18.9672 118.261 53.4066 105.014C86.1559 92.4181 129.579 85.4815 175.677 85.4815C221.776 85.4815 265.199 92.4181 297.948 105.014C332.387 118.261 351.355 136.545 351.355 156.5C351.355 159.596 348.844 162.107 345.748 162.107Z" fill="#082947"/>
<path d="M90.6369 309.393C89.686 309.393 88.7216 309.151 87.8387 308.641C70.5566 298.662 64.2053 273.094 69.954 236.646C75.4202 201.987 91.1243 160.913 114.174 120.99C137.223 81.0679 164.942 46.9304 192.225 24.8668C220.916 1.66473 246.234 -5.61878 263.516 4.3582C266.198 5.9064 267.116 9.33547 265.568 12.017C264.019 14.6985 260.591 15.615 257.909 14.069C232.899 -0.373128 173.073 41.3999 123.885 126.597C74.6958 211.796 68.4335 284.489 93.4455 298.93C96.127 300.478 97.0457 303.907 95.4975 306.589C94.4591 308.388 92.5745 309.393 90.6369 309.393Z" fill="#274B6D"/>
<path d="M246.416 313C231.142 313.001 212.529 304.553 192.225 288.133C164.942 266.069 137.224 231.932 114.174 192.009C91.1243 152.086 75.4203 111.012 69.9541 76.3537C64.2061 39.9048 70.5574 14.3367 87.8388 4.35893C90.5203 2.81148 93.9494 3.72874 95.4976 6.41099C97.0458 9.0925 96.127 12.5216 93.4455 14.0698C80.6532 21.4557 76.1275 43.5208 81.0308 74.6067C86.2876 107.939 101.507 147.642 123.885 186.402C166.658 260.488 217.477 301.736 246.451 301.74C250.797 301.741 254.647 300.814 257.909 298.93C260.591 297.383 264.02 298.3 265.568 300.982C267.116 303.664 266.198 307.093 263.516 308.641C258.465 311.558 252.724 313 246.416 313Z" fill="#6DA8D6"/>
<path d="M175.677 227.518C129.578 227.518 86.1551 220.582 53.4066 207.986C18.9672 194.74 0 176.455 0 156.5C0 153.403 2.51032 150.893 5.60672 150.893C8.70313 150.893 11.2134 153.403 11.2134 156.5C11.2134 185.382 77.2988 216.305 175.677 216.305C274.056 216.305 340.141 185.382 340.141 156.5C340.141 153.403 342.651 150.893 345.748 150.893C348.844 150.893 351.355 153.403 351.355 156.5C351.355 176.455 332.387 194.74 297.948 207.986C265.199 220.582 221.776 227.518 175.677 227.518Z" fill="#082947"/>
<path d="M36.9268 134.116C45.1842 134.116 51.8781 127.422 51.8781 119.164C51.8781 110.907 45.1842 104.213 36.9268 104.213C28.6695 104.213 21.9756 110.907 21.9756 119.164C21.9756 127.422 28.6695 134.116 36.9268 134.116Z" fill="#6DA8D6"/>
<path d="M213.017 311.056C221.273 311.056 227.966 304.363 227.966 296.107C227.966 287.85 221.273 281.158 213.017 281.158C204.761 281.158 198.068 287.85 198.068 296.107C198.068 304.363 204.761 311.056 213.017 311.056Z" fill="#F2484B"/>
<path d="M73.5198 69.4388C81.7759 69.4388 88.4688 62.7459 88.4688 54.4898C88.4688 46.2336 81.7759 39.5407 73.5198 39.5407C65.2637 39.5407 58.5708 46.2336 58.5708 54.4898C58.5708 62.7459 65.2637 69.4388 73.5198 69.4388Z" fill="#F2484B"/>
<path d="M104.939 313C98.6294 313 92.8911 311.559 87.8383 308.642C85.1568 307.094 84.2381 303.664 85.7863 300.983C87.3345 298.301 90.7635 297.383 93.445 298.931C118.457 313.374 178.281 271.6 227.47 186.403C249.848 147.643 265.067 107.94 270.324 74.6074C275.226 43.5215 270.701 21.4565 257.909 14.0705C255.227 12.5223 254.309 9.09326 255.857 6.41175C257.405 3.7295 260.834 2.81149 263.516 4.35969C280.798 14.3374 287.149 39.9056 281.4 76.3545C275.934 111.013 260.23 152.087 237.18 192.01C214.131 231.933 186.412 266.069 159.13 288.134C138.827 304.552 120.212 313 104.939 313Z" fill="#274B6D"/>
<path d="M260.717 309.393C258.78 309.393 256.895 308.388 255.857 306.589C254.309 303.907 255.227 300.478 257.909 298.93C282.921 284.489 276.659 211.795 227.47 126.597C178.281 41.3999 118.457 -0.37014 93.445 14.0698C90.7635 15.6165 87.3345 14.7 85.7863 12.0177C84.2381 9.33622 85.1568 5.90715 87.8383 4.35894C105.121 -5.61953 130.439 1.66473 159.13 24.8676C186.413 46.9312 214.132 81.0686 237.18 120.991C260.23 160.914 275.934 201.988 281.4 236.647C287.148 273.095 280.797 298.663 263.516 308.642C262.633 309.151 261.668 309.393 260.717 309.393Z" fill="#6DA8D6"/>
<path d="M277.834 69.4388C286.09 69.4388 292.783 62.7459 292.783 54.4898C292.783 46.2336 286.09 39.5407 277.834 39.5407C269.578 39.5407 262.885 46.2336 262.885 54.4898C262.885 62.7459 269.578 69.4388 277.834 69.4388Z" fill="#6DA8D6"/>
<g clip-path="url(#clip0_75_9659)">

<path d="M157.488 114.128C156.14 114.34 156.006 115.348 156.006 116.52C156.006 117.792 156.057 119.073 155.934 120.338C155.86 121.096 155.84 121.801 155.134 122.273C154.314 122.822 152.775 122.681 151.822 122.681C149.35 122.681 146.879 122.595 144.413 122.595C143.324 122.595 141.283 122.336 140.528 123.293C139.995 123.967 140.141 125.092 140.141 125.892C140.141 127.954 139.505 130.984 141.798 132.06C142.764 132.514 144.074 132.302 145.11 132.314C145.848 132.323 146.474 132.439 146.576 133.268C146.97 136.493 146.592 139.997 146.592 143.248V163.467V172.318C146.592 173.433 146.926 175.182 146.514 176.222C146.238 176.919 145.288 176.827 144.674 176.892C143.1 177.059 141.792 176.562 140.597 177.96C139.788 178.907 140.141 180.794 140.141 181.95C140.141 183.235 139.688 185.601 140.404 186.719C141.055 187.738 143.204 187.417 144.238 187.417C146.735 187.417 149.239 187.477 151.735 187.416C152.79 187.39 154.281 187.099 155.22 187.739C155.918 188.213 155.997 189.163 156.006 189.934C156.023 191.376 155.647 193.339 156.136 194.707C156.39 195.42 157.077 195.555 157.75 195.636C159.34 195.83 161.408 195.854 162.98 195.552C164.002 195.355 164.148 194.555 164.294 193.665C164.494 192.454 164.374 191.159 164.374 189.934C164.374 189.377 164.268 188.699 164.569 188.2C165.216 187.125 167.226 187.352 168.297 187.425C171.028 187.612 170.252 191.422 170.301 193.405C170.314 193.954 170.228 194.549 170.501 195.054C170.895 195.784 171.749 195.818 172.481 195.836C174.207 195.879 176.078 196.143 177.799 195.896C179.093 195.709 179.193 194.674 179.193 193.579C179.193 192.178 179.075 190.716 179.256 189.326C179.337 188.707 179.418 188.133 179.979 187.752C180.866 187.149 182.43 187.291 183.464 187.146C185.569 186.851 187.69 186.378 189.653 185.558C192.109 184.533 194.538 183.207 196.452 181.34C201.232 176.674 203.481 168.994 200.946 162.686C199.966 160.247 198.542 157.9 196.699 156.012C195.245 154.52 193.199 153.401 192.904 151.144C192.615 148.935 194.307 146.649 194.807 144.549C195.829 140.257 194.863 135.239 192.353 131.619C190.478 128.915 188.573 126.803 185.644 125.225C184.648 124.688 183.655 124.158 182.593 123.76C181.725 123.433 180.686 123.223 179.994 122.566C179.298 121.907 179.28 120.88 179.28 119.991C179.28 118.553 179.494 116.692 179.112 115.305C178.892 114.507 178.303 114.237 177.537 114.128C176.326 113.954 175.011 114.09 173.789 114.09C172.961 114.09 172.054 113.988 171.261 114.273C170.354 114.599 170.373 115.457 170.277 116.26C170.121 117.571 170.215 118.931 170.215 120.252C170.215 120.95 170.273 121.71 169.683 122.213C168.918 122.866 167.319 122.633 166.379 122.591C164.686 122.517 164.374 121.455 164.374 119.991C164.374 118.479 164.76 116.153 163.989 114.786C163.67 114.219 162.971 114.106 162.37 114.092C160.807 114.053 159.031 113.887 157.488 114.128L157.488 114.128ZM158.185 132.338C159.853 132.135 161.648 132.314 163.328 132.314C166.774 132.314 170.184 132.331 173.614 132.566C176.535 132.766 179.513 132.928 181.983 134.694C187.321 138.511 185.738 148.944 178.932 150.078C176.873 150.421 174.736 150.277 172.656 150.277H162.457H158.621C157.991 150.277 157.292 150.304 156.809 149.824C155.947 148.967 156.355 146.879 156.355 145.764V135.785C156.355 134.175 156.18 132.584 158.185 132.338L158.185 132.338ZM157.488 159.501C159.575 159.191 161.915 159.475 164.026 159.475H177.188C180.242 159.475 184.143 159.107 186.951 160.514C189.124 161.603 191.109 163.617 191.767 165.983C193.002 170.417 189.837 175.472 185.382 176.493C182.689 177.111 179.76 176.917 177.014 176.917H164.113C162.482 176.917 160.864 176.831 159.231 176.831C158.466 176.831 157.434 176.866 156.809 176.341C155.999 175.66 156.355 173.78 156.355 172.839V163.033C156.355 161.92 155.955 159.729 157.488 159.501V159.501Z" fill="#29B6F6"/>
</g>
<defs>

<clipPath id="clip0_75_9659">
<rect width="62" height="82" fill="white" transform="translate(140 114)"/>
</clipPath>

</defs>
</svg>
