<svg width="97" height="21" viewBox="0 0 97 21" fill="none" xmlns="http://www.w3.org/2000/svg">
<path d="M6.176 20.224C5.14933 20.224 4.11333 20.1867 3.068 20.112C2.02267 20.056 1.108 19.9253 0.324 19.72V0.875999C0.734667 0.801332 1.17333 0.735999 1.64 0.679998C2.10667 0.605333 2.58267 0.549333 3.068 0.511999C3.55333 0.474666 4.02933 0.446666 4.496 0.427998C4.98133 0.409332 5.43867 0.399999 5.868 0.399999C7.044 0.399999 8.136 0.493332 9.144 0.679998C10.152 0.847998 11.02 1.13733 11.748 1.548C12.4947 1.95867 13.0733 2.5 13.484 3.172C13.8947 3.844 14.1 4.67467 14.1 5.664C14.1 6.57867 13.876 7.36267 13.428 8.016C12.9987 8.66933 12.392 9.192 11.608 9.584C12.784 9.976 13.652 10.5547 14.212 11.32C14.772 12.0853 15.052 13.056 15.052 14.232C15.052 16.2293 14.324 17.732 12.868 18.74C11.412 19.7293 9.18133 20.224 6.176 20.224ZM3.796 11.264V17.172C4.188 17.2093 4.608 17.2373 5.056 17.256C5.504 17.2747 5.91467 17.284 6.288 17.284C7.016 17.284 7.688 17.2373 8.304 17.144C8.93867 17.0507 9.48 16.892 9.928 16.668C10.3947 16.4253 10.7587 16.108 11.02 15.716C11.3 15.324 11.44 14.82 11.44 14.204C11.44 13.1027 11.0387 12.3373 10.236 11.908C9.43333 11.4787 8.32267 11.264 6.904 11.264H3.796ZM3.796 8.492H6.288C7.632 8.492 8.68667 8.30533 9.452 7.932C10.2173 7.54 10.6 6.84933 10.6 5.86C10.6 4.92667 10.1987 4.264 9.396 3.872C8.612 3.48 7.58533 3.284 6.316 3.284C5.77467 3.284 5.28933 3.29333 4.86 3.312C4.44933 3.33067 4.09467 3.35867 3.796 3.396V8.492ZM18.7263 0.595999H22.2543V20H18.7263V0.595999ZM40.4261 0.595999V3.648H34.4621V20H30.9061V3.648H24.9421V0.595999H40.4261ZM47.485 18.768C48.997 18.768 50.173 18.4973 51.013 17.956C51.853 17.396 52.273 16.5 52.273 15.268C52.273 14.5587 52.133 13.9707 51.853 13.504C51.5916 13.0187 51.237 12.6173 50.789 12.3C50.341 11.964 49.8276 11.684 49.249 11.46C48.6703 11.2173 48.0636 10.9653 47.429 10.704C46.6263 10.3867 45.9076 10.06 45.273 9.724C44.6383 9.388 44.097 9.01467 43.649 8.604C43.201 8.17467 42.8556 7.68933 42.613 7.148C42.389 6.60667 42.277 5.972 42.277 5.244C42.277 3.58267 42.8276 2.32267 43.929 1.464C45.0303 0.605333 46.561 0.176 48.521 0.176C49.0436 0.176 49.557 0.213333 50.061 0.287998C50.565 0.362665 51.0316 0.465332 51.461 0.595999C51.909 0.707999 52.3103 0.838666 52.665 0.987999C53.0383 1.13733 53.3463 1.296 53.589 1.464L52.917 3.06C52.3756 2.68667 51.713 2.388 50.929 2.164C50.1636 1.94 49.333 1.828 48.437 1.828C47.821 1.828 47.2516 1.89333 46.729 2.024C46.225 2.136 45.7863 2.332 45.413 2.612C45.0396 2.87333 44.741 3.20933 44.517 3.62C44.3116 4.03067 44.209 4.52533 44.209 5.104C44.209 5.70133 44.321 6.20533 44.545 6.616C44.769 7.02667 45.077 7.38133 45.469 7.68C45.8796 7.97867 46.3556 8.24933 46.897 8.492C47.4383 8.73467 48.0263 8.98667 48.661 9.248C49.4263 9.56533 50.145 9.88267 50.817 10.2C51.5076 10.5173 52.105 10.8907 52.609 11.32C53.113 11.7493 53.5143 12.272 53.813 12.888C54.1116 13.504 54.261 14.26 54.261 15.156C54.261 16.9107 53.645 18.2267 52.413 19.104C51.1996 19.9813 49.5476 20.42 47.457 20.42C46.7103 20.42 46.029 20.3733 45.413 20.28C44.797 20.1867 44.2463 20.0747 43.761 19.944C43.2756 19.7947 42.865 19.6453 42.529 19.496C42.193 19.3467 41.9316 19.216 41.745 19.104L42.361 17.452C42.5476 17.564 42.7996 17.6947 43.117 17.844C43.4343 17.9933 43.8076 18.1427 44.237 18.292C44.6663 18.4227 45.1516 18.5347 45.693 18.628C46.2343 18.7213 46.8316 18.768 47.485 18.768ZM57.7778 0.595999H59.6818V20H57.7778V0.595999ZM80.1231 10.284C80.1231 11.9453 79.8618 13.392 79.3391 14.624C78.8165 15.856 78.0791 16.8827 77.1271 17.704C76.1938 18.5253 75.0738 19.1413 73.7671 19.552C72.4605 19.9627 71.0231 20.168 69.4551 20.168C68.6711 20.168 67.8498 20.1213 66.9911 20.028C66.1325 19.9533 65.3765 19.832 64.7231 19.664V0.96C65.3765 0.773332 66.1325 0.642666 66.9911 0.568C67.8498 0.474665 68.6711 0.427998 69.4551 0.427998C71.0231 0.427998 72.4605 0.633332 73.7671 1.044C75.0738 1.45467 76.1938 2.07067 77.1271 2.892C78.0791 3.71333 78.8165 4.74 79.3391 5.972C79.8618 7.204 80.1231 8.64133 80.1231 10.284ZM66.6271 18.32C66.7391 18.3387 67.0191 18.376 67.4671 18.432C67.9338 18.488 68.6711 18.516 69.6791 18.516C71.0791 18.516 72.3018 18.3293 73.3471 17.956C74.3925 17.564 75.2698 17.0133 75.9791 16.304C76.6885 15.5947 77.2205 14.736 77.5751 13.728C77.9298 12.7013 78.1071 11.5533 78.1071 10.284C78.1071 9.01467 77.9298 7.876 77.5751 6.868C77.2205 5.86 76.6885 5.00133 75.9791 4.292C75.2698 3.58267 74.3925 3.04133 73.3471 2.668C72.3018 2.276 71.0791 2.08 69.6791 2.08C68.6711 2.08 67.9338 2.108 67.4671 2.164C67.0191 2.22 66.7391 2.25733 66.6271 2.276V18.32ZM88.0436 20V12.02C86.7183 9.98533 85.4956 8.02533 84.3756 6.14C83.2743 4.236 82.2476 2.388 81.2956 0.595999H83.5076C84.2916 2.23867 85.1503 3.90933 86.0836 5.608C87.0356 7.288 88.025 8.89333 89.0516 10.424C90.041 8.89333 91.0116 7.288 91.9636 5.608C92.9156 3.90933 93.793 2.23867 94.5956 0.595999H96.6676C95.6783 2.36933 94.633 4.21733 93.5316 6.14C92.4303 8.044 91.2356 9.98533 89.9476 11.964V20H88.0436Z" fill="url(#paint0_linear_4_14867)"/>
<defs>
<linearGradient id="paint0_linear_4_14867" x1="97" y1="9.99999" x2="-2" y2="9.99999" gradientUnits="userSpaceOnUse">
<stop stop-color="#45ED7E"/>
<stop offset="1" stop-color="#0085FF"/>
</linearGradient>
</defs>
</svg>
