<svg width="49" height="48" viewBox="0 0 49 48" fill="none" xmlns="http://www.w3.org/2000/svg">
<circle cx="24.5" cy="24" r="21" fill="white"/>
<path d="M23.2689 30.549C25.491 30.541 30.3491 30.523 30.2931 27.433C30.2391 24.2729 25.573 24.4629 23.2989 24.5569C23.0449 24.5669 22.8189 24.5769 22.6349 24.5789L22.7389 30.553C22.8889 30.549 23.0689 30.549 23.2689 30.549V30.549ZM23.0329 21.8429C24.887 21.8409 28.9331 21.8369 28.8851 19.0269C28.8331 16.1528 24.947 16.3228 23.0489 16.4068C22.8349 16.4168 22.6489 16.4248 22.4929 16.4268L22.5869 21.8449L23.0329 21.8429Z" fill="#EF8E19"/>
<path fill-rule="evenodd" clip-rule="evenodd" d="M18.6909 47.2816C31.5513 50.4877 44.5757 42.6616 47.7817 29.8054C50.9878 16.9472 43.1596 3.92306 30.2992 0.71902C17.4469 -2.48902 4.42249 5.33908 1.2184 18.1992C-1.9877 31.0554 5.83853 44.0796 18.6929 47.2836L18.6909 47.2816ZM27.2552 13.2412C30.7633 13.4892 33.5553 14.5172 33.9213 17.7252C34.1934 20.0733 33.2333 21.5033 31.6753 22.3313C34.2754 22.9073 35.9254 24.4173 35.6654 27.8734C35.3434 32.1634 32.1693 33.3694 27.6132 33.7094L27.6892 38.2095L24.9771 38.2595L24.8991 33.8194C24.1971 33.8314 23.477 33.8394 22.731 33.8354L22.811 38.2955L20.0989 38.3435L20.0189 33.8354L19.2529 33.8414C18.8649 33.8434 18.4729 33.8454 18.0809 33.8534L14.5488 33.9135L15.0308 30.6654C15.0308 30.6654 17.0389 30.6614 17.0029 30.6314C17.7709 30.6154 17.9649 30.0614 18.0069 29.7134L17.8849 22.5993L18.0789 22.5953H18.1709C18.0753 22.5843 17.9791 22.5797 17.8829 22.5813L17.7949 17.5012C17.6809 16.9532 17.3129 16.3212 16.2148 16.3412C16.2448 16.3012 14.2428 16.3752 14.2428 16.3752L14.1908 13.4792L17.9349 13.4152V13.4292C18.4969 13.4192 19.0749 13.3992 19.6609 13.3772L19.5849 8.91913L22.297 8.87312L22.373 13.2412C23.097 13.2152 23.8251 13.1872 24.5391 13.1752L24.4631 8.83513L27.1771 8.78712L27.2552 13.2452V13.2412Z" fill="#EF8E19"/>
</svg>
