<svg width="24" height="24" viewBox="0 0 24 24" fill="none" xmlns="http://www.w3.org/2000/svg">
<path d="M12.0233 2.60156L11.5312 3.02306C11.5312 3.02306 9.77625 4.45556 8.03925 6.53906C6.3015 8.62181 4.5 11.3698 4.5 14.2498C4.5 16.3243 5.34975 18.0523 6.72675 19.2186C8.01825 20.3113 9.747 20.9031 11.625 20.9766C11.751 20.9826 11.874 20.9998 12 20.9998C12.126 20.9998 12.249 20.9826 12.375 20.9766C14.253 20.9031 15.9818 20.3113 17.2733 19.2186C18.6503 18.0523 19.5 16.3236 19.5 14.2498C19.5 11.6571 17.6895 8.95556 15.9608 6.79631C14.2327 4.63781 12.516 3.04631 12.516 3.04631L12.0233 2.60156ZM11.9775 4.68731C12.3675 5.05631 13.3897 5.98256 14.79 7.73456C16.4355 9.79406 18 12.4191 18 14.2498C18 15.9253 17.3497 17.1973 16.2892 18.0936C16.0312 18.3111 15.75 18.5098 15.4455 18.6793C15.63 18.2368 15.75 17.7568 15.75 17.2498C15.75 12.5623 13.242 9.70256 13.242 9.70256L11.883 8.18006L11.9295 10.2186C11.9295 10.2186 11.9325 11.1733 11.8125 12.0936C11.751 12.5533 11.6663 13.0108 11.5545 13.2658C11.5223 13.3386 11.508 13.3476 11.484 13.3828C11.2813 13.295 11.0982 13.1675 10.9455 13.0078C10.6935 12.7498 10.5233 12.4918 10.5233 12.4918L9.7965 11.3668L9.234 12.5856C9.234 12.5856 8.25 14.5926 8.25 17.2498C8.25 17.7568 8.37 18.2368 8.5545 18.6793C8.25529 18.5113 7.97276 18.3152 7.71075 18.0936C6.65025 17.1973 6 15.9261 6 14.2498C6 12.0321 7.5735 9.46556 9.21075 7.49981C10.5998 5.83556 11.5837 5.02106 11.9767 4.68731H11.9775ZM13.2428 12.5856C13.755 13.6993 14.25 15.2548 14.25 17.2498C14.25 17.8465 14.0129 18.4188 13.591 18.8408C13.169 19.2628 12.5967 19.4998 12 19.4998C11.4033 19.4998 10.831 19.2628 10.409 18.8408C9.98705 18.4188 9.75 17.8465 9.75 17.2498C9.75 16.0543 9.98175 15.0441 10.1955 14.3203C10.5322 14.6218 10.9455 14.9293 11.5545 14.9293C11.9123 14.9293 12.252 14.7658 12.4688 14.5543C12.6862 14.3436 12.8085 14.0946 12.9142 13.8516C13.0837 13.4556 13.1722 13.0161 13.2428 12.5856Z" fill="#EF553F"/>
</svg>
