<svg width="76" height="48" viewBox="0 0 76 48" fill="none" xmlns="http://www.w3.org/2000/svg">
<circle cx="24" cy="24" r="21" fill="white"/>
<path d="M24 0C37.2555 0 48 10.7445 48 24C48 37.2555 37.2555 48 24 48C10.7445 48 0 37.2555 0 24C0 10.7445 10.7445 0 24 0ZM11.25 10.8855L22.6425 39.5535L38.517 20.2125L32.898 14.8695L11.25 10.8855ZM35.628 21.351L24.123 35.367L25.5975 23.1675L35.628 21.3525V21.351ZM14.208 14.232L24.1575 22.485L22.6005 35.355L14.208 14.2305V14.232ZM32.55 16.6245L35.862 19.773L26.805 21.4125L32.55 16.6245ZM15.291 13.167L30.894 16.038L24.837 21.084L15.291 13.167Z" fill="#F70012"/>
<circle cx="52" cy="24" r="22" fill="white"/>
<path fill-rule="evenodd" clip-rule="evenodd" d="M52 48C65.2548 48 76 37.2548 76 24C76 10.7452 65.2548 0 52 0C38.7452 0 28 10.7452 28 24C28 37.2548 38.7452 48 52 48ZM63.2147 20.9232L63.1165 20.8418L63.0098 20.7815C62.8796 20.7218 62.7342 20.7033 62.5932 20.7287C62.4522 20.754 62.3224 20.8219 62.2211 20.9232L48.9237 34.2214L48.8423 34.3197C48.7493 34.4547 48.7065 34.6181 48.7214 34.7814C48.7362 34.9447 48.8078 35.0977 48.9237 35.2137L51.5032 37.7947L51.6014 37.8761C51.7365 37.9692 51.8998 38.012 52.0631 37.9971C52.2264 37.9822 52.3794 37.9106 52.4954 37.7947L65.7942 24.4965L65.8756 24.3983C65.969 24.2631 66.012 24.0995 65.9971 23.9358C65.9822 23.7722 65.9104 23.619 65.7942 23.5029L63.2147 20.9232ZM60.4359 18.1443L57.8537 15.5646H57.8551C57.7235 15.4331 57.545 15.3592 57.3589 15.3592C57.1729 15.3592 56.9944 15.4331 56.8628 15.5646L43.5641 28.8628C43.4325 28.9944 43.3586 29.1729 43.3586 29.359C43.3586 29.5451 43.4325 29.7235 43.5641 29.8551L46.1449 32.4362C46.2765 32.5677 46.455 32.6416 46.6411 32.6416C46.8271 32.6416 47.0056 32.5677 47.1372 32.4362L60.4359 19.1366C60.5675 19.005 60.6414 18.8265 60.6414 18.6404C60.6414 18.4543 60.5675 18.2759 60.4359 18.1443ZM41.219 20.7209C41.0557 20.7357 40.9027 20.8073 40.7867 20.9232L38.2058 23.5029L38.1244 23.6011C38.031 23.7363 37.988 23.8999 38.0029 24.0636C38.0178 24.2272 38.0896 24.3804 38.2058 24.4965L40.7853 27.0762L40.8835 27.1576C41.0187 27.251 41.1824 27.294 41.346 27.2791C41.5096 27.2642 41.6628 27.1924 41.7789 27.0762L44.3584 24.4965L44.4398 24.3983C44.5332 24.2631 44.5762 24.0995 44.5613 23.9358C44.5465 23.7722 44.4746 23.619 44.3584 23.5029L41.7789 20.9232L41.6807 20.8418C41.5456 20.7488 41.3823 20.706 41.219 20.7209ZM52.4968 10.2047L52.3986 10.1232L52.2919 10.0643C52.1618 10.0044 52.0165 9.98576 51.8756 10.0109C51.7346 10.0359 51.6046 10.1036 51.5032 10.2047L43.5641 18.1443L43.4841 18.2411C43.3905 18.3761 43.3472 18.5397 43.3619 18.7033C43.3765 18.867 43.448 19.0203 43.5641 19.1366L46.1449 21.7176L46.2418 21.799C46.3769 21.8924 46.5406 21.9354 46.7042 21.9205C46.8678 21.9057 47.0211 21.8338 47.1372 21.7176L55.0763 13.778L55.1577 13.6811C55.2511 13.546 55.2941 13.3823 55.2792 13.2187C55.2643 13.055 55.1925 12.9018 55.0763 12.7857L52.4968 10.2047Z" fill="#F0B90B"/>
</svg>
