<svg width="49" height="48" viewBox="0 0 49 48" fill="none" xmlns="http://www.w3.org/2000/svg">
<g clip-path="url(#clip0_412_18832)">
<circle cx="24.5" cy="24" r="21" fill="white"/>
<path d="M24.5 48C11.2445 48 0.5 37.2555 0.5 24C0.5 10.7445 11.2445 0 24.5 0C37.7555 0 48.5 10.7445 48.5 24C48.5 37.2555 37.7555 48 24.5 48ZM29.129 12.006H18.215L17.312 17.0565L27.155 17.0715C32.0015 17.0715 33.44 18.831 33.3935 21.7515C33.3725 23.2485 32.72 25.7805 32.444 26.5965C31.6985 28.7865 30.1625 31.2795 24.4055 31.272L14.8385 31.266L13.9355 36.3225H24.821C28.6595 36.3225 30.2945 35.874 32.021 35.0775C35.852 33.3105 38.1335 29.526 39.05 24.5865C40.409 17.2365 38.714 12.006 29.1275 12.006H29.129ZM24.209 23.697C24.566 22.2195 24.6785 21.627 24.6785 21.627H13.5095C10.6535 21.627 10.2455 23.487 9.974 24.612C9.6185 26.0835 9.506 26.6835 9.506 26.6835H20.6765C23.531 26.6835 23.939 24.8235 24.2105 23.697H24.209Z" fill="#0088E0"/>
</g>
<defs>
<clipPath id="clip0_412_18832">
<rect width="48" height="48" fill="white" transform="translate(0.5)"/>
</clipPath>
</defs>
</svg>
