<svg width="49" height="48" viewBox="0 0 49 48" fill="none" xmlns="http://www.w3.org/2000/svg">
<g clip-path="url(#clip0_412_18819)">
<circle cx="24.5" cy="24" r="21" fill="white"/>
<path fill-rule="evenodd" clip-rule="evenodd" d="M24.5 48C11.2445 48 0.5 37.2555 0.5 24C0.5 10.7445 11.2445 0 24.5 0C37.7555 0 48.5 10.7445 48.5 24C48.5 37.2555 37.7555 48 24.5 48ZM16.223 25.344V36H26.0465C27.8615 36 29.432 35.685 30.7595 35.0595C32.087 34.431 33.17 33.5745 34.0115 32.487C34.8515 31.401 35.477 30.129 35.8865 28.6725C36.296 27.216 36.5 25.6575 36.5 24C36.5103 22.4217 36.3034 20.8494 35.885 19.3275C35.477 17.8725 34.8515 16.599 34.01 15.513C33.17 14.4255 32.087 13.569 30.7595 12.9405C29.432 12.315 27.86 12 26.045 12H16.2215V21.915H14V25.344H16.223ZM20.372 21.9165V15.429H24.4535C26.069 15.429 27.3905 15.6465 28.4195 16.0845C29.4485 16.521 30.2555 17.1255 30.842 17.8995C31.4419 18.7044 31.8502 19.6355 32.036 20.622C32.246 21.6645 32.351 22.7895 32.351 24C32.3582 25.1337 32.2527 26.2652 32.036 27.378C31.826 28.4205 31.4285 29.328 30.842 30.1005C30.2555 30.8745 29.447 31.479 28.4195 31.9155C27.3905 32.3535 26.069 32.571 24.4535 32.571H20.372V25.344H26.843V21.9165H20.372V21.9165Z" fill="#B69B31"/>
</g>
<defs>
<clipPath id="clip0_412_18819">
<rect width="48" height="48" fill="white" transform="translate(0.5)"/>
</clipPath>
</defs>
</svg>
