<svg width="24" height="24" viewBox="0 0 24 24" fill="none" xmlns="http://www.w3.org/2000/svg">
<path d="M14.0436 2.37698L12.4901 10.5392L18.118 10.5582L10.4573 21.6234L12.0109 12.6436L6.38326 12.6239L14.0436 2.37698ZM14.0446 1.00004C14.0075 1.00004 13.9703 1.0014 13.9338 1.00413C13.6908 1.02377 13.5297 1.10501 13.3386 1.23342C13.2311 1.30513 13.1341 1.39157 13.0505 1.49022C13.0254 1.51982 13.0017 1.55061 12.9796 1.58247L5.26414 11.7936C4.95948 12.2112 4.91473 12.7623 5.14882 13.2229C5.38255 13.6835 5.85519 13.9754 6.37327 13.9792L10.3479 14.0081L9.09827 21.3704C8.97951 22.0031 9.31686 22.6337 9.91067 22.8878C10.0832 22.9619 10.2691 23.0001 10.457 23C10.8897 23 11.2453 22.7976 11.5121 22.432L19.2371 11.3668C19.5418 10.9492 19.5862 10.3974 19.3525 9.93747C19.1187 9.47688 18.6461 9.18494 18.128 9.18118L14.1534 9.17429L15.3896 2.70088C15.4158 2.5949 15.429 2.48613 15.4288 2.37696C15.4288 1.63202 14.8357 1.02479 14.0935 1.00069C14.077 1 14.0608 1 14.0447 1L14.0446 1.00004Z" fill="#FDA219"/>
</svg>
