<svg width="76" height="48" viewBox="0 0 76 48" fill="none" xmlns="http://www.w3.org/2000/svg">
<circle cx="23.8423" cy="24" r="21" fill="white"/>
<path fill-rule="evenodd" clip-rule="evenodd" d="M23.8421 48C10.6738 48 0 37.2555 0 24C0 10.7445 10.6738 0 23.8421 0C37.0104 0 47.6842 10.7445 47.6842 24C47.6842 37.2555 37.0104 48 23.8421 48ZM35.7542 24.3285L24.5842 6L13.4112 24.33L24.5842 30.8595L35.7542 24.3285ZM35.7632 26.424L24.5842 32.9505L13.4112 26.4255L24.5842 41.9925L35.7632 26.424Z" fill="#5F7AE3"/>
<path d="M24.5842 6V19.305L35.7557 24.33L24.5842 6ZM24.5842 32.952V41.9925L35.7632 26.424L24.5842 32.952Z" fill="#BBC6EF"/>
<path d="M24.5842 30.8601L35.7557 24.3306L24.5842 19.3086V30.8601Z" fill="#7D93E7"/>
<path d="M13.4111 24.3306L24.5841 30.8601V19.3086L13.4111 24.3306Z" fill="#BBC6EF"/>
<circle cx="51.842" cy="24" r="21" fill="white"/>
<g clip-path="url(#clip0_415_19132)">
<path fill-rule="evenodd" clip-rule="evenodd" d="M51.842 48C38.5865 48 27.842 37.2555 27.842 24C27.842 10.7445 38.5865 0 51.842 0C65.0975 0 75.842 10.7445 75.842 24C75.842 37.2555 65.0975 48 51.842 48ZM54.725 20.6895V17.1405H62.846V11.7285H40.7345V17.1405H48.8555V20.688C42.2555 20.991 37.292 22.299 37.292 23.865C37.292 25.431 42.2555 26.7375 48.8555 27.042V38.415H54.725V27.039C61.3145 26.736 66.266 25.4295 66.266 23.865C66.266 22.3005 61.3145 20.994 54.725 20.6895ZM54.725 26.0745V26.0715C54.56 26.0835 53.7095 26.1345 51.812 26.1345C50.297 26.1345 49.2305 26.0895 48.8555 26.0715V26.076C43.0235 25.8195 38.6705 24.804 38.6705 23.589C38.6705 22.3755 43.0235 21.36 48.8555 21.099V25.065C49.2365 25.092 50.3285 25.1565 51.8375 25.1565C53.648 25.1565 54.5555 25.0815 54.725 25.0665V21.102C60.545 21.3615 64.8875 22.377 64.8875 23.589C64.8875 24.804 60.545 25.8165 54.725 26.0745V26.0745Z" fill="#259C77"/>
</g>
<defs>
<clipPath id="clip0_415_19132">
<rect width="48" height="48" fill="white" transform="translate(27.842)"/>
</clipPath>
</defs>
</svg>
