<svg width="49" height="48" viewBox="0 0 49 48" fill="none" xmlns="http://www.w3.org/2000/svg">
<circle cx="24.5002" cy="24" r="21" fill="white"/>
<path fill-rule="evenodd" clip-rule="evenodd" d="M24.5001 48C11.3318 48 0.657959 37.2555 0.657959 24C0.657959 10.7445 11.3318 0 24.5001 0C37.6684 0 48.3422 10.7445 48.3422 24C48.3422 37.2555 37.6684 48 24.5001 48ZM36.4122 24.3285L25.2421 6L14.0691 24.33L25.2421 30.8595L36.4122 24.3285ZM36.4211 26.424L25.2421 32.9505L14.0691 26.4255L25.2421 41.9925L36.4211 26.424Z" fill="#5F7AE3"/>
<path d="M25.2421 6V19.305L36.4136 24.33L25.2421 6ZM25.2421 32.952V41.9925L36.421 26.424L25.2421 32.952Z" fill="#BBC6EF"/>
<path d="M25.2421 30.8591L36.4136 24.3296L25.2421 19.3076V30.8591Z" fill="#7D93E7"/>
<path d="M14.0691 24.3296L25.2421 30.8591V19.3076L14.0691 24.3296Z" fill="#BBC6EF"/>
</svg>
