<svg width="151" height="53" viewBox="0 0 151 53" fill="none" xmlns="http://www.w3.org/2000/svg">
<path d="M8.18577 26.224C7.1591 26.224 6.1231 26.1867 5.07777 26.112C4.03243 26.056 3.11777 25.9253 2.33377 25.72V6.876C2.74443 6.80133 3.1831 6.736 3.64977 6.68C4.11643 6.60533 4.59243 6.54933 5.07777 6.512C5.5631 6.47467 6.0391 6.44667 6.50577 6.428C6.9911 6.40933 7.44843 6.4 7.87777 6.4C9.05377 6.4 10.1458 6.49333 11.1538 6.68C12.1618 6.848 13.0298 7.13733 13.7578 7.548C14.5044 7.95867 15.0831 8.5 15.4938 9.172C15.9044 9.844 16.1098 10.6747 16.1098 11.664C16.1098 12.5787 15.8858 13.3627 15.4378 14.016C15.0084 14.6693 14.4018 15.192 13.6178 15.584C14.7938 15.976 15.6618 16.5547 16.2218 17.32C16.7818 18.0853 17.0618 19.056 17.0618 20.232C17.0618 22.2293 16.3338 23.732 14.8778 24.74C13.4218 25.7293 11.1911 26.224 8.18577 26.224ZM5.80577 17.264V23.172C6.19777 23.2093 6.61777 23.2373 7.06577 23.256C7.51377 23.2747 7.92443 23.284 8.29777 23.284C9.02577 23.284 9.69777 23.2373 10.3138 23.144C10.9484 23.0507 11.4898 22.892 11.9378 22.668C12.4044 22.4253 12.7684 22.108 13.0298 21.716C13.3098 21.324 13.4498 20.82 13.4498 20.204C13.4498 19.1027 13.0484 18.3373 12.2458 17.908C11.4431 17.4787 10.3324 17.264 8.91377 17.264H5.80577ZM5.80577 14.492H8.29777C9.64177 14.492 10.6964 14.3053 11.4618 13.932C12.2271 13.54 12.6098 12.8493 12.6098 11.86C12.6098 10.9267 12.2084 10.264 11.4058 9.872C10.6218 9.48 9.5951 9.284 8.32577 9.284C7.78443 9.284 7.2991 9.29333 6.86977 9.312C6.4591 9.33067 6.10443 9.35867 5.80577 9.396V14.492ZM20.7361 6.596H24.2641V26H20.7361V6.596ZM42.4359 6.596V9.648H36.4719V26H32.9159V9.648H26.9519V6.596H42.4359ZM49.4947 24.768C51.0067 24.768 52.1827 24.4973 53.0227 23.956C53.8627 23.396 54.2827 22.5 54.2827 21.268C54.2827 20.5587 54.1427 19.9707 53.8627 19.504C53.6014 19.0187 53.2467 18.6173 52.7987 18.3C52.3507 17.964 51.8374 17.684 51.2587 17.46C50.6801 17.2173 50.0734 16.9653 49.4387 16.704C48.6361 16.3867 47.9174 16.06 47.2827 15.724C46.6481 15.388 46.1067 15.0147 45.6587 14.604C45.2107 14.1747 44.8654 13.6893 44.6227 13.148C44.3987 12.6067 44.2867 11.972 44.2867 11.244C44.2867 9.58267 44.8374 8.32267 45.9387 7.464C47.0401 6.60533 48.5707 6.176 50.5307 6.176C51.0534 6.176 51.5667 6.21333 52.0707 6.288C52.5747 6.36267 53.0414 6.46533 53.4707 6.596C53.9187 6.708 54.3201 6.83867 54.6747 6.988C55.0481 7.13733 55.3561 7.296 55.5987 7.464L54.9267 9.06C54.3854 8.68667 53.7227 8.388 52.9387 8.164C52.1734 7.94 51.3427 7.828 50.4467 7.828C49.8307 7.828 49.2614 7.89333 48.7387 8.024C48.2347 8.136 47.7961 8.332 47.4227 8.612C47.0494 8.87333 46.7507 9.20933 46.5267 9.62C46.3214 10.0307 46.2187 10.5253 46.2187 11.104C46.2187 11.7013 46.3307 12.2053 46.5547 12.616C46.7787 13.0267 47.0867 13.3813 47.4787 13.68C47.8894 13.9787 48.3654 14.2493 48.9067 14.492C49.4481 14.7347 50.0361 14.9867 50.6707 15.248C51.4361 15.5653 52.1547 15.8827 52.8267 16.2C53.5174 16.5173 54.1147 16.8907 54.6187 17.32C55.1227 17.7493 55.5241 18.272 55.8227 18.888C56.1214 19.504 56.2707 20.26 56.2707 21.156C56.2707 22.9107 55.6547 24.2267 54.4227 25.104C53.2094 25.9813 51.5574 26.42 49.4667 26.42C48.7201 26.42 48.0387 26.3733 47.4227 26.28C46.8067 26.1867 46.2561 26.0747 45.7707 25.944C45.2854 25.7947 44.8747 25.6453 44.5387 25.496C44.2027 25.3467 43.9414 25.216 43.7547 25.104L44.3707 23.452C44.5574 23.564 44.8094 23.6947 45.1267 23.844C45.4441 23.9933 45.8174 24.1427 46.2467 24.292C46.6761 24.4227 47.1614 24.5347 47.7027 24.628C48.2441 24.7213 48.8414 24.768 49.4947 24.768ZM59.7876 6.596H61.6916V26H59.7876V6.596ZM82.1329 16.284C82.1329 17.9453 81.8716 19.392 81.3489 20.624C80.8262 21.856 80.0889 22.8827 79.1369 23.704C78.2036 24.5253 77.0836 25.1413 75.7769 25.552C74.4702 25.9627 73.0329 26.168 71.4649 26.168C70.6809 26.168 69.8596 26.1213 69.0009 26.028C68.1422 25.9533 67.3862 25.832 66.7329 25.664V6.96C67.3862 6.77333 68.1422 6.64267 69.0009 6.568C69.8596 6.47467 70.6809 6.428 71.4649 6.428C73.0329 6.428 74.4702 6.63333 75.7769 7.044C77.0836 7.45467 78.2036 8.07067 79.1369 8.892C80.0889 9.71333 80.8262 10.74 81.3489 11.972C81.8716 13.204 82.1329 14.6413 82.1329 16.284ZM68.6369 24.32C68.7489 24.3387 69.0289 24.376 69.4769 24.432C69.9436 24.488 70.6809 24.516 71.6889 24.516C73.0889 24.516 74.3116 24.3293 75.3569 23.956C76.4022 23.564 77.2796 23.0133 77.9889 22.304C78.6982 21.5947 79.2302 20.736 79.5849 19.728C79.9396 18.7013 80.1169 17.5533 80.1169 16.284C80.1169 15.0147 79.9396 13.876 79.5849 12.868C79.2302 11.86 78.6982 11.0013 77.9889 10.292C77.2796 9.58267 76.4022 9.04133 75.3569 8.668C74.3116 8.276 73.0889 8.08 71.6889 8.08C70.6809 8.08 69.9436 8.108 69.4769 8.164C69.0289 8.22 68.7489 8.25733 68.6369 8.276V24.32ZM90.0534 26V18.02C88.7281 15.9853 87.5054 14.0253 86.3854 12.14C85.2841 10.236 84.2574 8.388 83.3054 6.596H85.5174C86.3014 8.23867 87.1601 9.90933 88.0934 11.608C89.0454 13.288 90.0347 14.8933 91.0614 16.424C92.0507 14.8933 93.0214 13.288 93.9734 11.608C94.9254 9.90933 95.8027 8.23867 96.6054 6.596H98.6774C97.6881 8.36933 96.6427 10.2173 95.5414 12.14C94.4401 14.044 93.2454 15.9853 91.9574 17.964V26H90.0534Z" fill="#212121"/>
<path d="M4.48469 45.0706C3.75063 45.0706 3.09186 44.9106 2.50838 44.5906C1.93431 44.2612 1.48258 43.8142 1.1532 43.2496C0.823815 42.6755 0.659123 42.0214 0.659123 41.2874C0.659123 40.5439 0.823815 39.8898 1.1532 39.3252C1.48258 38.7605 1.93431 38.3182 2.50838 37.9982C3.09186 37.6783 3.75063 37.5183 4.48469 37.5183C5.11522 37.5183 5.68459 37.6406 6.19278 37.8853C6.70097 38.13 7.10094 38.497 7.39268 38.9864L6.64451 39.4946C6.39041 39.1181 6.07514 38.8405 5.6987 38.6617C5.32226 38.4829 4.91289 38.3935 4.47057 38.3935C3.94355 38.3935 3.4683 38.5158 3.04481 38.7605C2.62131 38.9958 2.28722 39.3299 2.04254 39.7628C1.79785 40.1957 1.67551 40.7039 1.67551 41.2874C1.67551 41.8708 1.79785 42.379 2.04254 42.8119C2.28722 43.2449 2.62131 43.5836 3.04481 43.8283C3.4683 44.0636 3.94355 44.1812 4.47057 44.1812C4.91289 44.1812 5.32226 44.0918 5.6987 43.913C6.07514 43.7342 6.39041 43.4613 6.64451 43.0943L7.39268 43.6025C7.10094 44.0824 6.70097 44.4495 6.19278 44.7036C5.68459 44.9482 5.11522 45.0706 4.48469 45.0706ZM9.36159 45V37.5889H10.3215V39.6075L10.2227 39.2546C10.4297 38.6899 10.7779 38.2617 11.2673 37.97C11.7567 37.6688 12.3637 37.5183 13.0883 37.5183V38.4923C13.0507 38.4923 13.0131 38.4923 12.9754 38.4923C12.9378 38.4829 12.9001 38.4782 12.8625 38.4782C12.0814 38.4782 11.4697 38.7182 11.0273 39.1981C10.585 39.6687 10.3639 40.3416 10.3639 41.2168V45H9.36159ZM15.2907 47.8092C14.9425 47.8092 14.6084 47.7527 14.2885 47.6398C13.9779 47.5268 13.7097 47.3575 13.4838 47.1316L13.9497 46.3834C14.1379 46.5622 14.3402 46.6987 14.5567 46.7928C14.7825 46.8963 15.0319 46.9481 15.3048 46.9481C15.6342 46.9481 15.9166 46.854 16.1518 46.6657C16.3965 46.4869 16.6271 46.167 16.8435 45.7058L17.3235 44.6189L17.4364 44.4636L20.4856 37.5889H21.4737L17.7611 45.8893C17.5541 46.3693 17.3235 46.7504 17.0694 47.0328C16.8247 47.3151 16.5565 47.5127 16.2648 47.6257C15.973 47.748 15.6483 47.8092 15.2907 47.8092ZM17.267 45.2117L13.8509 37.5889H14.8955L17.9164 44.393L17.267 45.2117ZM26.7108 45.0706C26.0709 45.0706 25.4921 44.9247 24.9745 44.633C24.4569 44.3318 24.0428 43.9036 23.7323 43.3484C23.4311 42.7837 23.2805 42.0967 23.2805 41.2874C23.2805 40.478 23.4311 39.7957 23.7323 39.2405C24.0334 38.6758 24.4428 38.2476 24.9604 37.9559C25.478 37.6641 26.0615 37.5183 26.7108 37.5183C27.4167 37.5183 28.0472 37.6783 28.6024 37.9982C29.1671 38.3088 29.6094 38.7511 29.9294 39.3252C30.2494 39.8898 30.4094 40.5439 30.4094 41.2874C30.4094 42.0402 30.2494 42.699 29.9294 43.2637C29.6094 43.8283 29.1671 44.2706 28.6024 44.5906C28.0472 44.9106 27.4167 45.0706 26.7108 45.0706ZM22.8853 47.7386V37.5889H23.8452V39.8193L23.7464 41.3015L23.8875 42.7978V47.7386H22.8853ZM26.6403 44.1812C27.1673 44.1812 27.6378 44.0636 28.0519 43.8283C28.466 43.5836 28.7954 43.2449 29.0401 42.8119C29.2847 42.3696 29.4071 41.8614 29.4071 41.2874C29.4071 40.7133 29.2847 40.2098 29.0401 39.7769C28.7954 39.344 28.466 39.0052 28.0519 38.7605C27.6378 38.5158 27.1673 38.3935 26.6403 38.3935C26.1132 38.3935 25.638 38.5158 25.2145 38.7605C24.8004 39.0052 24.471 39.344 24.2263 39.7769C23.9911 40.2098 23.8734 40.7133 23.8734 41.2874C23.8734 41.8614 23.9911 42.3696 24.2263 42.8119C24.471 43.2449 24.8004 43.5836 25.2145 43.8283C25.638 44.0636 26.1132 44.1812 26.6403 44.1812ZM34.7958 45.0706C34.0994 45.0706 33.563 44.8824 33.1866 44.5059C32.8101 44.1295 32.6219 43.5978 32.6219 42.9108V35.9513H33.6242V42.8543C33.6242 43.2872 33.7324 43.6213 33.9488 43.8566C34.1747 44.0918 34.4947 44.2095 34.9088 44.2095C35.3511 44.2095 35.7181 44.0824 36.0098 43.8283L36.3628 44.5483C36.1651 44.7271 35.9251 44.8588 35.6428 44.9435C35.3699 45.0282 35.0876 45.0706 34.7958 45.0706ZM31.2949 38.4217V37.5889H35.8828V38.4217H31.2949ZM40.9463 45.0706C40.2311 45.0706 39.5864 44.9106 39.0123 44.5906C38.4477 44.2612 38.0007 43.8142 37.6713 43.2496C37.3419 42.6755 37.1772 42.0214 37.1772 41.2874C37.1772 40.5439 37.3419 39.8898 37.6713 39.3252C38.0007 38.7605 38.4477 38.3182 39.0123 37.9982C39.577 37.6783 40.2217 37.5183 40.9463 37.5183C41.6804 37.5183 42.3297 37.6783 42.8944 37.9982C43.4684 38.3182 43.9155 38.7605 44.2354 39.3252C44.5648 39.8898 44.7295 40.5439 44.7295 41.2874C44.7295 42.0214 44.5648 42.6755 44.2354 43.2496C43.9155 43.8142 43.4684 44.2612 42.8944 44.5906C42.3203 44.9106 41.671 45.0706 40.9463 45.0706ZM40.9463 44.1812C41.4827 44.1812 41.958 44.0636 42.3721 43.8283C42.7862 43.5836 43.1108 43.2449 43.3461 42.8119C43.5908 42.3696 43.7131 41.8614 43.7131 41.2874C43.7131 40.7039 43.5908 40.1957 43.3461 39.7628C43.1108 39.3299 42.7862 38.9958 42.3721 38.7605C41.958 38.5158 41.4874 38.3935 40.9604 38.3935C40.4334 38.3935 39.9629 38.5158 39.5488 38.7605C39.1347 38.9958 38.8053 39.3299 38.5606 39.7628C38.3159 40.1957 38.1936 40.7039 38.1936 41.2874C38.1936 41.8614 38.3159 42.3696 38.5606 42.8119C38.8053 43.2449 39.1347 43.5836 39.5488 43.8283C39.9629 44.0636 40.4287 44.1812 40.9463 44.1812ZM59.7307 37.5183C60.333 37.5183 60.8553 37.6359 61.2976 37.8712C61.7493 38.097 62.0976 38.4453 62.3422 38.9158C62.5963 39.3864 62.7234 39.9792 62.7234 40.6945V45H61.7211V40.7933C61.7211 40.0122 61.5329 39.424 61.1565 39.0287C60.7894 38.6241 60.2671 38.4217 59.5895 38.4217C59.0813 38.4217 58.639 38.53 58.2626 38.7464C57.8955 38.9534 57.6085 39.2593 57.4015 39.664C57.2038 40.0592 57.105 40.5392 57.105 41.1039V45H56.1028V40.7933C56.1028 40.0122 55.9145 39.424 55.5381 39.0287C55.1617 38.6241 54.6346 38.4217 53.9571 38.4217C53.4583 38.4217 53.0207 38.53 52.6442 38.7464C52.2678 38.9534 51.976 39.2593 51.769 39.664C51.5714 40.0592 51.4726 40.5392 51.4726 41.1039V45H50.4703V37.5889H51.4302V39.5934L51.2749 39.2405C51.5008 38.7041 51.8631 38.2853 52.3619 37.9841C52.8701 37.6736 53.4677 37.5183 54.1547 37.5183C54.8793 37.5183 55.4958 37.7018 56.0039 38.0688C56.5121 38.4264 56.8415 38.9676 56.9921 39.6922L56.5968 39.5369C56.8133 38.9346 57.1944 38.45 57.7403 38.0829C58.2955 37.7065 58.959 37.5183 59.7307 37.5183ZM68.5894 45.0706C67.8177 45.0706 67.1401 44.9106 66.5567 44.5906C65.9732 44.2612 65.5167 43.8142 65.1874 43.2496C64.858 42.6755 64.6933 42.0214 64.6933 41.2874C64.6933 40.5533 64.8486 39.904 65.1591 39.3393C65.4791 38.7746 65.912 38.3323 66.4578 38.0123C67.0131 37.683 67.6342 37.5183 68.3212 37.5183C69.0176 37.5183 69.6341 37.6783 70.1705 37.9982C70.7163 38.3088 71.1445 38.7511 71.4551 39.3252C71.7656 39.8898 71.9209 40.5439 71.9209 41.2874C71.9209 41.3344 71.9162 41.3862 71.9068 41.4427C71.9068 41.4897 71.9068 41.5415 71.9068 41.5979H65.4556V40.8498H71.3704L70.9751 41.1462C70.9751 40.6098 70.8575 40.1345 70.6222 39.7204C70.3963 39.2969 70.0858 38.9676 69.6905 38.7323C69.2953 38.497 68.8388 38.3794 68.3212 38.3794C67.813 38.3794 67.3566 38.497 66.9519 38.7323C66.5473 38.9676 66.232 39.2969 66.0061 39.7204C65.7803 40.1439 65.6673 40.6286 65.6673 41.1744V41.3297C65.6673 41.8944 65.7897 42.3932 66.0344 42.8261C66.2884 43.2496 66.6367 43.5836 67.079 43.8283C67.5307 44.0636 68.0436 44.1812 68.6177 44.1812C69.0694 44.1812 69.4882 44.1013 69.874 43.9413C70.2693 43.7813 70.6081 43.5366 70.8904 43.2072L71.4551 43.8566C71.1257 44.2518 70.7116 44.553 70.2128 44.76C69.7235 44.9671 69.1823 45.0706 68.5894 45.0706ZM73.961 45V37.5889H74.9209V39.6075L74.8221 39.2546C75.0291 38.6899 75.3773 38.2617 75.8667 37.97C76.3561 37.6688 76.9631 37.5183 77.6877 37.5183V38.4923C77.6501 38.4923 77.6124 38.4923 77.5748 38.4923C77.5371 38.4829 77.4995 38.4782 77.4619 38.4782C76.6807 38.4782 76.069 38.7182 75.6267 39.1981C75.1844 39.6687 74.9632 40.3416 74.9632 41.2168V45H73.961ZM82.525 45.0706C81.791 45.0706 81.1322 44.9106 80.5487 44.5906C79.9747 44.2612 79.5229 43.8142 79.1936 43.2496C78.8642 42.6755 78.6995 42.0214 78.6995 41.2874C78.6995 40.5439 78.8642 39.8898 79.1936 39.3252C79.5229 38.7605 79.9747 38.3182 80.5487 37.9982C81.1322 37.6783 81.791 37.5183 82.525 37.5183C83.1556 37.5183 83.7249 37.6406 84.2331 37.8853C84.7413 38.13 85.1413 38.497 85.433 38.9864L84.6849 39.4946C84.4308 39.1181 84.1155 38.8405 83.7391 38.6617C83.3626 38.4829 82.9532 38.3935 82.5109 38.3935C81.9839 38.3935 81.5087 38.5158 81.0852 38.7605C80.6617 38.9958 80.3276 39.3299 80.0829 39.7628C79.8382 40.1957 79.7159 40.7039 79.7159 41.2874C79.7159 41.8708 79.8382 42.379 80.0829 42.8119C80.3276 43.2449 80.6617 43.5836 81.0852 43.8283C81.5087 44.0636 81.9839 44.1812 82.5109 44.1812C82.9532 44.1812 83.3626 44.0918 83.7391 43.913C84.1155 43.7342 84.4308 43.4613 84.6849 43.0943L85.433 43.6025C85.1413 44.0824 84.7413 44.4495 84.2331 44.7036C83.7249 44.9482 83.1556 45.0706 82.525 45.0706ZM91.0749 37.5183C91.6772 37.5183 92.2042 37.6359 92.6559 37.8712C93.1171 38.097 93.4747 38.4453 93.7288 38.9158C93.9923 39.3864 94.124 39.9792 94.124 40.6945V45H93.1218V40.7933C93.1218 40.0122 92.9241 39.424 92.5289 39.0287C92.143 38.6241 91.5972 38.4217 90.8914 38.4217C90.3643 38.4217 89.9032 38.53 89.5079 38.7464C89.1221 38.9534 88.8209 39.2593 88.6045 39.664C88.3974 40.0592 88.2939 40.5392 88.2939 41.1039V45H87.2917V34.5256H88.2939V39.6216L88.0963 39.2405C88.3316 38.7041 88.708 38.2853 89.2256 37.9841C89.7432 37.6736 90.3596 37.5183 91.0749 37.5183ZM101.476 45V43.3625L101.433 43.0943V40.3557C101.433 39.7251 101.254 39.2405 100.897 38.9017C100.549 38.5629 100.026 38.3935 99.3299 38.3935C98.85 38.3935 98.3935 38.4735 97.9606 38.6335C97.5277 38.7935 97.1607 39.0052 96.8595 39.2687L96.4078 38.5205C96.7842 38.2006 97.236 37.9559 97.763 37.7865C98.29 37.6077 98.8452 37.5183 99.4287 37.5183C100.389 37.5183 101.127 37.7583 101.645 38.2382C102.172 38.7088 102.436 39.4287 102.436 40.398V45H101.476ZM98.9205 45.0706C98.3653 45.0706 97.8806 44.9812 97.4665 44.8024C97.0619 44.6141 96.7513 44.3601 96.5349 44.0401C96.3184 43.7107 96.2102 43.3343 96.2102 42.9108C96.2102 42.5249 96.2996 42.1767 96.4784 41.8661C96.6666 41.5462 96.9678 41.2921 97.3818 41.1039C97.8053 40.9062 98.37 40.8074 99.0758 40.8074H101.631V41.5556H99.1041C98.3888 41.5556 97.89 41.6826 97.6077 41.9367C97.3348 42.1908 97.1983 42.5061 97.1983 42.8825C97.1983 43.306 97.363 43.6448 97.6924 43.8989C98.0218 44.153 98.4829 44.2801 99.0758 44.2801C99.6405 44.2801 100.125 44.153 100.53 43.8989C100.944 43.6354 101.245 43.259 101.433 42.7696L101.659 43.4613C101.471 43.9507 101.142 44.3412 100.671 44.633C100.21 44.9247 99.6264 45.0706 98.9205 45.0706ZM108.941 37.5183C109.543 37.5183 110.07 37.6359 110.522 37.8712C110.983 38.097 111.341 38.4453 111.595 38.9158C111.858 39.3864 111.99 39.9792 111.99 40.6945V45H110.988V40.7933C110.988 40.0122 110.79 39.424 110.395 39.0287C110.009 38.6241 109.463 38.4217 108.758 38.4217C108.23 38.4217 107.769 38.53 107.374 38.7464C106.988 38.9534 106.687 39.2593 106.471 39.664C106.264 40.0592 106.16 40.5392 106.16 41.1039V45H105.158V37.5889H106.118V39.6216L105.962 39.2405C106.198 38.7041 106.574 38.2853 107.092 37.9841C107.609 37.6736 108.226 37.5183 108.941 37.5183ZM117.041 45.0706C116.344 45.0706 115.808 44.8824 115.432 44.5059C115.055 44.1295 114.867 43.5978 114.867 42.9108V35.9513H115.869V42.8543C115.869 43.2872 115.977 43.6213 116.194 43.8566C116.42 44.0918 116.74 44.2095 117.154 44.2095C117.596 44.2095 117.963 44.0824 118.255 43.8283L118.608 44.5483C118.41 44.7271 118.17 44.8588 117.888 44.9435C117.615 45.0282 117.333 45.0706 117.041 45.0706ZM113.54 38.4217V37.5889H118.128V38.4217H113.54Z" fill="#212121"/>
</svg>
