<svg width="51" height="55" viewBox="0 0 51 55" fill="none" xmlns="http://www.w3.org/2000/svg">
<path fill-rule="evenodd" clip-rule="evenodd" d="M22.7266 0.112665L22.6139 0L11.1507 11.4632L11.1239 16.4801L11.0068 38.3754L10.9803 43.3367L22.6139 54.9704L22.7266 54.8577V49.7356V31.5343V29.1204V26.0747V23.6608V5.45953V0.112665ZM50.0991 27.4852L38.4084 39.1759L35.9041 36.6982L26.7056 27.5976L35.9041 18.4969L38.5214 15.9075L50.0991 27.4852ZM26.6286 22.2143V9.31999L33.145 15.7671L26.6286 22.2143ZM26.6286 45.8751L33.145 39.428L26.6286 32.9808V45.8751ZM7.20132 20.3197L7.12553 34.4941L0 27.3686L7.20132 20.3197Z" fill="white"/>
</svg>
