<svg width="49" height="48" viewBox="0 0 49 48" fill="none" xmlns="http://www.w3.org/2000/svg">
<circle cx="24.5" cy="24" r="21" fill="white"/>
<g clip-path="url(#clip0_412_18762)">
<path d="M24.5 0C19.7533 0 15.1131 1.40758 11.1663 4.04473C7.21954 6.68188 4.14341 10.4302 2.3269 14.8156C0.510399 19.201 0.0351188 24.0266 0.961164 28.6822C1.88721 33.3377 4.17299 37.6141 7.52945 40.9706C10.8859 44.327 15.1623 46.6128 19.8178 47.5388C24.4734 48.4649 29.299 47.9896 33.6844 46.1731C38.0698 44.3566 41.8181 41.2805 44.4553 37.3337C47.0924 33.3869 48.5 28.7468 48.5 24C48.5 17.6348 45.9714 11.5303 41.4706 7.02944C36.9697 2.52856 30.8652 0 24.5 0V0ZM23.976 7.356H29.144C29.2497 7.35613 29.354 7.3807 29.4486 7.42777C29.5433 7.47485 29.6258 7.54317 29.6897 7.62739C29.7536 7.71161 29.7971 7.80946 29.817 7.9133C29.8368 8.01714 29.8324 8.12416 29.804 8.226L25.744 22.062L29.554 20.898L28.738 23.668L24.89 24.788L22.394 33.216H35.746C35.8518 33.2166 35.9561 33.2416 36.0506 33.2892C36.1452 33.3368 36.2274 33.4056 36.2909 33.4902C36.3545 33.5748 36.3975 33.673 36.4168 33.7771C36.4361 33.8811 36.431 33.9882 36.402 34.09L35.238 38.09C35.1823 38.2803 35.0664 38.4474 34.9078 38.5664C34.7492 38.6854 34.5563 38.7498 34.358 38.75H13.966L17.412 27.106L13.6 28.266L14.44 25.544L18.26 24.384L23.104 8.024C23.1571 7.8327 23.2712 7.66395 23.429 7.54339C23.5867 7.42283 23.7795 7.35704 23.978 7.356H23.976Z" fill="#325A98"/>
</g>
<defs>
<clipPath id="clip0_412_18762">
<rect width="48" height="48" fill="white" transform="translate(0.5)"/>
</clipPath>
</defs>
</svg>
