<svg width="82" height="36" viewBox="0 0 82 36" fill="none" xmlns="http://www.w3.org/2000/svg">
<path d="M3 12.75H21.75M9 24.75H12M15.75 24.75H21.75" stroke="#212121" stroke-width="2.25" stroke-miterlimit="10" stroke-linecap="round" stroke-linejoin="round"/>
<path d="M33 21.045V24.165C33 29.43 31.665 30.75 26.34 30.75H9.66C4.335 30.75 3 29.43 3 24.165V11.835C3 6.57 4.335 5.25 9.66 5.25H21.75M30 14.25V5.25L33 8.25M30 5.25L27 8.25" stroke="#212121" stroke-width="2.25" stroke-linecap="round" stroke-linejoin="round"/>
<path d="M49 12.75H67.75M55 24.75H58M61.75 24.75H67.75" stroke="#212121" stroke-width="2.25" stroke-miterlimit="10" stroke-linecap="round" stroke-linejoin="round"/>
<path d="M79 21.045V24.165C79 29.43 77.665 30.75 72.34 30.75H55.66C50.335 30.75 49 29.43 49 24.165V11.835C49 6.57 50.335 5.25 55.66 5.25H67.75M76 5.25V14.25L79 11.25M76 14.25L73 11.25" stroke="#212121" stroke-width="2.25" stroke-linecap="round" stroke-linejoin="round"/>
</svg>
