<svg width="37" height="36" viewBox="0 0 37 36" fill="none" xmlns="http://www.w3.org/2000/svg">
<path d="M5.01465 16.83V23.565C5.01465 30.3 7.71465 33 14.4496 33H22.5346C29.2696 33 31.9696 30.3 31.9696 23.565V16.83" stroke="#212121" stroke-width="2.25" stroke-linecap="round" stroke-linejoin="round"/>
<path d="M18.5007 18C21.2457 18 23.2707 15.765 23.0007 13.02L22.0107 3H15.0057L14.0007 13.02C13.7307 15.765 15.7557 18 18.5007 18Z" stroke="#212121" stroke-width="2.25" stroke-linecap="round" stroke-linejoin="round"/>
<path d="M27.9656 18C30.9956 18 33.2156 15.54 32.9156 12.525L32.4956 8.4C31.9556 4.5 30.4556 3 26.5256 3H21.9506L23.0006 13.515C23.2556 15.99 25.4906 18 27.9656 18ZM8.96056 18C11.4356 18 13.6706 15.99 13.9106 13.515L14.2406 10.2L14.9606 3H10.3856C6.45556 3 4.95556 4.5 4.41556 8.4L4.01056 12.525C3.71056 15.54 5.93056 18 8.96056 18ZM18.5006 25.5C15.9956 25.5 14.7506 26.745 14.7506 29.25V33H22.2506V29.25C22.2506 26.745 21.0056 25.5 18.5006 25.5Z" stroke="#212121" stroke-width="2.25" stroke-linecap="round" stroke-linejoin="round"/>
</svg>
