<svg width="37" height="36" viewBox="0 0 37 36" fill="none" xmlns="http://www.w3.org/2000/svg">
<path d="M33.5 9.375V17.025C33.5 18.93 32.87 20.535 31.745 21.645C30.635 22.77 29.03 23.4 27.125 23.4V26.115C27.125 27.135 25.985 27.75 25.145 27.18L23.69 26.22C23.825 25.755 23.885 25.245 23.885 24.705V18.6C23.885 15.54 21.845 13.5 18.785 13.5H8.6C8.39 13.5 8.195 13.515 8 13.53V9.375C8 5.55 10.55 3 14.375 3H27.125C30.95 3 33.5 5.55 33.5 9.375Z" stroke="#212121" stroke-width="2.25" stroke-miterlimit="10" stroke-linecap="round" stroke-linejoin="round"/>
<path d="M23.885 18.6V24.705C23.885 25.245 23.825 25.755 23.69 26.22C23.135 28.425 21.305 29.805 18.785 29.805H14.705L10.175 32.82C10.0231 32.9239 9.84569 32.9843 9.66195 32.9944C9.4782 33.0046 9.29519 32.9641 9.13281 32.8775C8.97043 32.7909 8.8349 32.6615 8.74097 32.5032C8.64703 32.345 8.59827 32.164 8.6 31.98V29.805C7.07 29.805 5.795 29.295 4.91 28.41C4.01 27.51 3.5 26.235 3.5 24.705V18.6C3.5 15.75 5.27 13.785 8 13.53C8.195 13.515 8.39 13.5 8.6 13.5H18.785C21.845 13.5 23.885 15.54 23.885 18.6V18.6Z" stroke="#212121" stroke-width="2.25" stroke-miterlimit="10" stroke-linecap="round" stroke-linejoin="round"/>
</svg>
