<svg width="76" height="48" viewBox="0 0 76 48" fill="none" xmlns="http://www.w3.org/2000/svg">
<circle cx="24" cy="24" r="21" fill="white"/>
<path d="M24 0C37.2555 0 48 10.7445 48 24C48 37.2555 37.2555 48 24 48C10.7445 48 0 37.2555 0 24C0 10.7445 10.7445 0 24 0ZM11.25 10.8855L22.6425 39.5535L38.517 20.2125L32.898 14.8695L11.25 10.8855ZM35.628 21.351L24.123 35.367L25.5975 23.1675L35.628 21.3525V21.351ZM14.208 14.232L24.1575 22.485L22.6005 35.355L14.208 14.2305V14.232ZM32.55 16.6245L35.862 19.773L26.805 21.4125L32.55 16.6245V16.6245ZM15.291 13.167L30.894 16.038L24.837 21.084L15.291 13.167V13.167Z" fill="#F70012"/>
<circle cx="52" cy="24" r="21" fill="white"/>
<g clip-path="url(#clip0_415_19133)">
<path fill-rule="evenodd" clip-rule="evenodd" d="M52 48C38.7445 48 28 37.2555 28 24C28 10.7445 38.7445 0 52 0C65.2555 0 76 10.7445 76 24C76 37.2555 65.2555 48 52 48ZM54.883 20.6895V17.1405H63.004V11.7285H40.8925V17.1405H49.0135V20.688C42.4135 20.991 37.45 22.299 37.45 23.865C37.45 25.431 42.4135 26.7375 49.0135 27.042V38.415H54.883V27.039C61.4725 26.736 66.424 25.4295 66.424 23.865C66.424 22.3005 61.4725 20.994 54.883 20.6895ZM54.883 26.0745V26.0715C54.718 26.0835 53.8675 26.1345 51.97 26.1345C50.455 26.1345 49.3885 26.0895 49.0135 26.0715V26.076C43.1815 25.8195 38.8285 24.804 38.8285 23.589C38.8285 22.3755 43.1815 21.36 49.0135 21.099V25.065C49.3945 25.092 50.4865 25.1565 51.9955 25.1565C53.806 25.1565 54.7135 25.0815 54.883 25.0665V21.102C60.703 21.3615 65.0455 22.377 65.0455 23.589C65.0455 24.804 60.703 25.8165 54.883 26.0745V26.0745Z" fill="#259C77"/>
</g>
<defs>
<clipPath id="clip0_415_19133">
<rect width="48" height="48" fill="white" transform="translate(28)"/>
</clipPath>
</defs>
</svg>
