<svg width="49" height="48" viewBox="0 0 49 48" fill="none" xmlns="http://www.w3.org/2000/svg">
<g clip-path="url(#clip0_412_18805)">
<circle cx="24.5" cy="24" r="21" fill="white"/>
<path d="M24.5 0C37.7555 0 48.5 10.7445 48.5 24C48.5 37.2555 37.7555 48 24.5 48C11.2445 48 0.5 37.2555 0.5 24C0.5 10.7445 11.2445 0 24.5 0ZM11.75 10.8855L23.1425 39.5535L39.017 20.2125L33.398 14.8695L11.75 10.8855ZM36.128 21.351L24.623 35.367L26.0975 23.1675L36.128 21.3525V21.351ZM14.708 14.232L24.6575 22.485L23.1005 35.355L14.708 14.2305V14.232ZM33.05 16.6245L36.362 19.773L27.305 21.4125L33.05 16.6245V16.6245ZM15.791 13.167L31.394 16.038L25.337 21.084L15.791 13.167V13.167Z" fill="#F70012"/>
</g>
<defs>
<clipPath id="clip0_412_18805">
<rect width="48" height="48" fill="white" transform="translate(0.5)"/>
</clipPath>
</defs>
</svg>
