<svg width="37" height="36" viewBox="0 0 37 36" fill="none" xmlns="http://www.w3.org/2000/svg">
<path d="M14 33H23C30.5 33 33.5 30 33.5 22.5V13.5C33.5 6 30.5 3 23 3H14C6.5 3 3.5 6 3.5 13.5V22.5C3.5 30 6.5 33 14 33Z" stroke="#212121" stroke-width="2.25" stroke-linecap="round" stroke-linejoin="round"/>
<path d="M23.8551 27.75V21.9M23.8551 11.175V8.25M13.1451 27.75V24.825M13.1451 14.1V8.25M23.8551 18.975C24.3673 18.975 24.8744 18.8741 25.3476 18.6781C25.8208 18.4821 26.2507 18.1949 26.6128 17.8327C26.975 17.4706 27.2623 17.0406 27.4582 16.5675C27.6542 16.0943 27.7551 15.5872 27.7551 15.075C27.7551 14.5628 27.6542 14.0557 27.4582 13.5825C27.2623 13.1094 26.975 12.6794 26.6128 12.3173C26.2507 11.9551 25.8208 11.6679 25.3476 11.4719C24.8744 11.2759 24.3673 11.175 23.8551 11.175C22.8208 11.175 21.8288 11.5859 21.0974 12.3173C20.366 13.0487 19.9551 14.0407 19.9551 15.075C19.9551 16.1093 20.366 17.1013 21.0974 17.8327C21.8288 18.5641 22.8208 18.975 23.8551 18.975V18.975ZM13.1451 24.825C13.6573 24.825 14.1644 24.7241 14.6376 24.5281C15.1108 24.3321 15.5407 24.0449 15.9028 23.6827C16.265 23.3206 16.5523 22.8906 16.7482 22.4175C16.9442 21.9443 17.0451 21.4372 17.0451 20.925C17.0451 20.4128 16.9442 19.9057 16.7482 19.4325C16.5523 18.9594 16.265 18.5294 15.9028 18.1673C15.5407 17.8051 15.1108 17.5179 14.6376 17.3219C14.1644 17.1259 13.6573 17.025 13.1451 17.025C12.1108 17.025 11.1188 17.4359 10.3874 18.1673C9.65601 18.8987 9.24512 19.8907 9.24512 20.925C9.24512 21.9593 9.65601 22.9513 10.3874 23.6827C11.1188 24.4141 12.1108 24.825 13.1451 24.825V24.825Z" stroke="#212121" stroke-width="2.25" stroke-miterlimit="10" stroke-linecap="round" stroke-linejoin="round"/>
</svg>
