<svg width="36" height="36" viewBox="0 0 36 36" fill="none" xmlns="http://www.w3.org/2000/svg">
<path d="M18 33C26.2845 33 33 26.2845 33 18C33 9.7155 26.2845 3 18 3C9.7155 3 3 9.7155 3 18C3 26.2845 9.7155 33 18 33Z" stroke="#212121" stroke-width="2.25" stroke-linecap="round" stroke-linejoin="round"/>
<path d="M11.9994 4.5H13.4994C10.5744 13.2624 10.5744 22.7376 13.4994 31.5H11.9994M22.4994 4.5C25.4243 13.2624 25.4243 22.7376 22.4994 31.5" stroke="#212121" stroke-width="2.25" stroke-linecap="round" stroke-linejoin="round"/>
<path d="M4.5 24.0004V22.5004C13.2624 25.4253 22.7376 25.4253 31.5 22.5004V24.0004M4.5 13.5004C13.2624 10.5754 22.7376 10.5754 31.5 13.5004" stroke="#212121" stroke-width="2.25" stroke-linecap="round" stroke-linejoin="round"/>
</svg>
