<svg width="444" height="331" viewBox="0 0 444 331" fill="none" xmlns="http://www.w3.org/2000/svg">
<rect y="134.5" width="261" height="62" transform="rotate(-30 0 134.5)" fill="url(#paint0_linear_538_19217)"/>
<circle cx="240.5" cy="32.5" r="25.5" fill="white"/>
<path fill-rule="evenodd" clip-rule="evenodd" d="M239.789 64C222.232 64 208 49.674 208 32C208 14.326 222.232 0 239.789 0C257.347 0 271.579 14.326 271.579 32C271.579 49.674 257.347 64 239.789 64ZM255.672 32.438L240.779 8L225.882 32.44L240.779 41.146L255.672 32.438ZM255.684 35.232L240.779 43.934L225.882 35.234L240.779 55.99L255.684 35.232Z" fill="#5F7AE3"/>
<path d="M240.778 8V25.74L255.674 32.44L240.778 8ZM240.778 43.936V55.99L255.684 35.232L240.778 43.936Z" fill="#BBC6EF"/>
<path d="M240.778 41.1461L255.674 32.4401L240.778 25.7441V41.1461Z" fill="#7D93E7"/>
<path d="M225.881 32.4401L240.778 41.1461V25.7441L225.881 32.4401Z" fill="#BBC6EF"/>
<rect x="171.607" y="171.553" width="261" height="62" transform="rotate(-30 171.607 171.553)" fill="url(#paint1_linear_538_19217)"/>
<circle cx="411.5" cy="68.5" r="25.5" fill="white"/>
<path d="M410.359 77.7323C413.322 77.7216 419.799 77.6976 419.725 73.5775C419.653 69.3642 413.431 69.6175 410.399 69.7428C410.06 69.7562 409.759 69.7695 409.514 69.7722L409.652 77.7376C409.852 77.7323 410.092 77.7323 410.359 77.7323ZM410.044 66.1241C412.517 66.1215 417.911 66.1161 417.847 62.3694C417.778 58.5374 412.597 58.764 410.066 58.876C409.78 58.8894 409.532 58.9 409.324 58.9027L409.45 66.1268L410.044 66.1241Z" fill="#EF8E19"/>
<path fill-rule="evenodd" clip-rule="evenodd" d="M404.255 100.042C421.402 104.317 438.768 93.8821 443.042 76.7405C447.317 59.5963 436.879 42.2307 419.732 37.9587C402.596 33.6813 385.23 44.1188 380.958 61.2657C376.683 78.4072 387.118 95.7728 404.257 100.045L404.255 100.042ZM415.674 54.6549C420.351 54.9856 424.074 56.3563 424.562 60.6337C424.924 63.7644 423.644 65.6711 421.567 66.7751C425.034 67.5431 427.234 69.5564 426.887 74.1645C426.458 79.8846 422.226 81.4926 416.151 81.9459L416.252 87.946L412.636 88.0127L412.532 82.0926C411.596 82.1086 410.636 82.1193 409.641 82.1139L409.748 88.0607L406.132 88.1247L406.025 82.1139L405.004 82.1219C404.487 82.1246 403.964 82.1273 403.441 82.1379L398.732 82.2179L399.374 77.8872C399.374 77.8872 402.052 77.8819 402.004 77.8419C403.028 77.8205 403.287 77.0819 403.343 76.6179L403.18 67.1324L403.439 67.1271H403.561C403.434 67.1125 403.305 67.1062 403.177 67.1084L403.06 60.335C402.908 59.6043 402.417 58.7616 400.953 58.7883C400.993 58.735 398.324 58.8336 398.324 58.8336L398.254 54.9722L403.247 54.8869V54.9056C403.996 54.8922 404.767 54.8656 405.548 54.8362L405.447 48.8922L409.063 48.8308L409.164 54.6549C410.129 54.6202 411.1 54.5829 412.052 54.5669L411.951 48.7802L415.57 48.7162L415.674 54.6602V54.6549Z" fill="#EF8E19"/>
<rect x="47" y="276.5" width="261" height="62" transform="rotate(-30 47 276.5)" fill="url(#paint2_linear_538_19217)"/>
<g clip-path="url(#clip0_538_19217)">
<circle cx="283.5" cy="178.5" r="25.5" fill="white"/>
<path fill-rule="evenodd" clip-rule="evenodd" d="M283 210C265.326 210 251 195.674 251 178C251 160.326 265.326 146 283 146C300.674 146 315 160.326 315 178C315 195.674 300.674 210 283 210ZM286.844 173.586V168.854H297.672V161.638H268.19V168.854H279.018V173.584C270.218 173.988 263.6 175.732 263.6 177.82C263.6 179.908 270.218 181.65 279.018 182.056V197.22H286.844V182.052C295.63 181.648 302.232 179.906 302.232 177.82C302.232 175.734 295.63 173.992 286.844 173.586ZM286.844 180.766V180.762C286.624 180.778 285.49 180.846 282.96 180.846C280.94 180.846 279.518 180.786 279.018 180.762V180.768C271.242 180.426 265.438 179.072 265.438 177.452C265.438 175.834 271.242 174.48 279.018 174.132V179.42C279.526 179.456 280.982 179.542 282.994 179.542C285.408 179.542 286.618 179.442 286.844 179.422V174.136C294.604 174.482 300.394 175.836 300.394 177.452C300.394 179.072 294.604 180.422 286.844 180.766Z" fill="#259C77"/>
</g>
<defs>
<linearGradient id="paint0_linear_538_19217" x1="261" y1="165.5" x2="-1.28845e-06" y2="165.5" gradientUnits="userSpaceOnUse">
<stop offset="0.0001" stop-color="#5F7AE3" stop-opacity="0.3"/>
<stop offset="1" stop-color="#5F7AE3" stop-opacity="0"/>
</linearGradient>
<linearGradient id="paint1_linear_538_19217" x1="432.607" y1="202.553" x2="171.607" y2="202.553" gradientUnits="userSpaceOnUse">
<stop offset="0.0001" stop-color="#EF8E19" stop-opacity="0.3"/>
<stop offset="1" stop-color="#EF8E19" stop-opacity="0"/>
</linearGradient>
<linearGradient id="paint2_linear_538_19217" x1="308" y1="307.5" x2="47" y2="307.5" gradientUnits="userSpaceOnUse">
<stop offset="0.0001" stop-color="#259C77" stop-opacity="0.3"/>
<stop offset="1" stop-color="#259C77" stop-opacity="0"/>
</linearGradient>
<clipPath id="clip0_538_19217">
<rect width="64" height="64" fill="white" transform="translate(251 146)"/>
</clipPath>
</defs>
</svg>
