<svg width="48" height="48" viewBox="0 0 48 48" fill="none" xmlns="http://www.w3.org/2000/svg">
<g clip-path="url(#clip0_417_19134)">
<path fill-rule="evenodd" clip-rule="evenodd" d="M24 48.0003C36.2632 48.0003 46.3781 38.8028 47.823 26.9297C47.6276 28.5339 47.2738 30.0893 46.7775 31.5805H39.5996V11.3877L24 26.9877L8.4 11.3877V31.5807H1.22213C0.429384 29.1968 1.00986e-05 26.6489 0 24.0002V24.0003C0 37.2551 10.7452 48.0003 24 48.0003ZM13.6043 23.7658L20.4124 30.5741V30.5739H20.4128L23.9993 34.1604L27.5862 30.5737L34.3943 23.7656V36.4718H44.5068C40.2942 43.3836 32.6845 47.9993 23.9991 47.9993C15.3138 47.9993 7.70482 43.3836 3.4917 36.4718H13.6043V23.7658Z" fill="white"/>
<path d="M23.9996 0C10.7471 0 0 10.7469 0 23.9998C0 26.6486 0.429375 29.1966 1.22213 31.5804H8.4V11.3874L24 26.9874L39.5996 11.3874V31.5802H46.7775C47.5708 29.1964 48.0002 26.6484 48.0002 23.9996C48 10.7464 37.2527 0 23.9996 0Z" fill="#FF6600"/>
<path d="M20.4124 30.5741L13.6043 23.7658V36.4718H3.4917C7.70482 43.3836 15.3138 47.9993 23.9991 47.9993C32.6845 47.9993 40.2942 43.3836 44.5068 36.4718H34.3943V23.7656L27.5862 30.5737L23.9993 34.1604L20.4128 30.5739H20.4124V30.5741Z" fill="#4C4C4C"/>
</g>
<defs>
<clipPath id="clip0_417_19134">
<rect width="48" height="48" fill="white"/>
</clipPath>
</defs>
</svg>
