<svg width="49" height="48" viewBox="0 0 49 48" fill="none" xmlns="http://www.w3.org/2000/svg">
<circle cx="24.5" cy="24" r="21" fill="white"/>
<path fill-rule="evenodd" clip-rule="evenodd" d="M24.5 48C37.7548 48 48.5 37.2548 48.5 24C48.5 10.7452 37.7548 0 24.5 0C11.2452 0 0.5 10.7452 0.5 24C0.5 37.2548 11.2452 48 24.5 48ZM29.9757 27.0472C31.1774 27.0928 32.3896 27.2752 33.4641 27.8879L33.4631 27.8889C34.4277 28.4463 35.2277 29.2489 35.7821 30.2152C36.3365 31.1815 36.6256 32.2772 36.62 33.3913C36.6192 35.0734 35.9507 36.6863 34.7613 37.8757C33.5718 39.0652 31.9589 39.7337 30.2768 39.7344C26.7751 39.7297 23.9337 36.8949 23.9337 33.3913C23.9337 32.1601 24.3792 31.0163 24.9331 29.9779C25.6066 28.722 25.2361 27.202 24.0325 26.519C22.4051 25.5747 21.1036 26.633 20.5897 27.4604C19.9617 28.4741 19.2036 29.4184 18.1349 30.033C17.1697 30.5872 16.0762 30.8788 14.9633 30.8788C13.8504 30.8788 12.7569 30.5872 11.7917 30.033C10.3338 29.1919 9.26949 27.8063 8.8327 26.1808C8.3959 24.5553 8.62236 22.8229 9.46231 21.3643C11.2037 18.3357 15.093 17.2926 18.1301 19.0491C19.2036 19.6619 19.9617 20.6071 20.5897 21.6217C21.3316 22.8197 22.8307 23.2491 24.0325 22.5613C25.6313 21.636 25.4043 19.9887 24.9331 19.108C24.3745 18.0488 23.9337 16.9202 23.9337 15.689C23.9299 14.5742 24.2215 13.4782 24.7786 12.5126C25.3358 11.547 26.1387 10.7461 27.1057 10.1913C28.5666 9.34678 30.3029 9.11621 31.9335 9.55025C33.5642 9.98427 34.9562 11.0474 35.8039 12.5065C36.6444 13.9646 36.8716 15.6967 36.4355 17.3223C35.9994 18.9478 34.9358 20.3336 33.4783 21.1752C32.4048 21.7937 31.1926 21.9761 29.9909 22.0217C28.5744 22.0758 27.4762 23.174 27.4762 24.5344C27.4762 26.3594 28.9763 27.0177 29.9757 27.0472Z" fill="#0086BB"/>
</svg>
